<svg width="47" height="46" viewBox="0 0 47 46" fill="none" xmlns="http://www.w3.org/2000/svg">
<g filter="url(#filter0_ii_163_147)">
<path d="M16.3648 25.0966C16.3648 25.6306 16.2092 26.1527 15.9176 26.5967C15.626 27.0407 15.2115 27.3868 14.7266 27.5912C14.2416 27.7955 13.708 27.849 13.1932 27.7448C12.6784 27.6406 12.2056 27.3835 11.8344 27.0059C11.4633 26.6282 11.2105 26.1471 11.1081 25.6234C11.0057 25.0996 11.0583 24.5567 11.2591 24.0633C11.46 23.5699 11.8002 23.1482 12.2366 22.8515C12.673 22.5549 13.1861 22.3965 13.711 22.3965C14.4148 22.3965 15.0898 22.681 15.5875 23.1873C16.0852 23.6937 16.3648 24.3805 16.3648 25.0966ZM33.1725 22.3965C32.6476 22.3965 32.1345 22.5549 31.6981 22.8515C31.2617 23.1482 30.9215 23.5699 30.7207 24.0633C30.5198 24.5567 30.4673 25.0996 30.5697 25.6234C30.6721 26.1471 30.9248 26.6282 31.296 27.0059C31.6671 27.3835 32.14 27.6406 32.6548 27.7448C33.1696 27.849 33.7032 27.7955 34.1881 27.5912C34.673 27.3868 35.0875 27.0407 35.3791 26.5967C35.6707 26.1527 35.8264 25.6306 35.8264 25.0966C35.8264 24.3805 35.5468 23.6937 35.0491 23.1873C34.5514 22.681 33.8764 22.3965 33.1725 22.3965ZM46.4417 4.39583V24.1966C46.4417 36.1063 36.1249 45.7974 23.4417 45.7974C10.7586 45.7974 0.441742 36.1063 0.441742 24.1966V4.39583C0.442066 3.68403 0.649769 2.98831 1.0386 2.39658C1.42744 1.80484 1.97995 1.34366 2.62631 1.07132C3.27268 0.798967 3.98389 0.727675 4.67007 0.866449C5.35625 1.00522 5.9866 1.34783 6.48145 1.85099C6.51241 1.88249 6.53895 1.91174 6.56549 1.94324L10.3937 6.4209C14.308 3.92575 18.8337 2.60242 23.4528 2.60242C28.0719 2.60242 32.5976 3.92575 36.5119 6.4209L40.318 1.94324C40.3445 1.91174 40.3711 1.88249 40.402 1.85099C40.8969 1.34783 41.5272 1.00522 42.2134 0.866449C42.8996 0.727675 43.6108 0.798967 44.2572 1.07132C44.9035 1.34366 45.456 1.80484 45.8449 2.39658C46.2337 2.98831 46.4414 3.68403 46.4417 4.39583ZM42.9033 4.39583L38.1352 9.97604C37.8435 10.3193 37.4352 10.5379 36.9919 10.588C36.5486 10.638 36.1031 10.5159 35.7445 10.246C34.6652 9.43397 33.507 8.73656 32.2879 8.16472V13.3962C32.2879 13.8736 32.1015 14.3314 31.7697 14.669C31.4379 15.0066 30.9879 15.1962 30.5187 15.1962C30.0494 15.1962 29.5994 15.0066 29.2676 14.669C28.9358 14.3314 28.7494 13.8736 28.7494 13.3962V6.88217C27.5887 6.5784 26.4051 6.37368 25.211 6.27015V13.3962C25.211 13.8736 25.0246 14.3314 24.6928 14.669C24.361 15.0066 23.911 15.1962 23.4417 15.1962C22.9725 15.1962 22.5225 15.0066 22.1907 14.669C21.8589 14.3314 21.6725 13.8736 21.6725 13.3962V6.27015C20.4783 6.37368 19.2948 6.5784 18.134 6.88217V13.3962C18.134 13.8736 17.9476 14.3314 17.6159 14.669C17.2841 15.0066 16.834 15.1962 16.3648 15.1962C15.8956 15.1962 15.4456 15.0066 15.1138 14.669C14.782 14.3314 14.5956 13.8736 14.5956 13.3962V8.16472C13.3765 8.73656 12.2183 9.43397 11.139 10.246C10.7812 10.5167 10.3362 10.64 9.8929 10.5912C9.44965 10.5423 9.04085 10.3251 8.74828 9.98279L3.9802 4.39583V24.1966C3.9802 33.5704 11.767 41.2972 21.6725 42.123V37.5418L18.6515 34.4682C18.4873 34.3009 18.3571 34.1024 18.2682 33.884C18.1794 33.6655 18.1337 33.4314 18.1338 33.195C18.1339 32.9586 18.1798 32.7245 18.2688 32.5061C18.3579 32.2877 18.4883 32.0893 18.6527 31.9222C18.9846 31.5848 19.4348 31.3953 19.9041 31.3955C20.1364 31.3956 20.3665 31.4423 20.5811 31.5328C20.7958 31.6234 20.9908 31.7561 21.155 31.9233L23.4417 34.2499L25.7285 31.9233C25.8927 31.7561 26.0877 31.6234 26.3023 31.5328C26.517 31.4423 26.7471 31.3956 26.9794 31.3955C27.2118 31.3954 27.4419 31.4419 27.6566 31.5322C27.8713 31.6226 28.0664 31.7551 28.2308 31.9222C28.3952 32.0893 28.5256 32.2877 28.6146 32.5061C28.7037 32.7245 28.7495 32.9586 28.7496 33.195C28.7497 33.4314 28.7041 33.6655 28.6152 33.884C28.5264 34.1024 28.3962 34.3009 28.2319 34.4682L25.211 37.5418V42.123C35.1165 41.2927 42.9033 33.5727 42.9033 24.1966V4.39583Z" fill="url(#paint0_linear_163_147)"/>
</g>
<defs>
<filter id="filter0_ii_163_147" x="0.441742" y="-1.10364" width="46" height="48.802" filterUnits="userSpaceOnUse" color-interpolation-filters="sRGB">
<feFlood flood-opacity="0" result="BackgroundImageFix"/>
<feBlend mode="normal" in="SourceGraphic" in2="BackgroundImageFix" result="shape"/>
<feColorMatrix in="SourceAlpha" type="matrix" values="0 0 0 0 0 0 0 0 0 0 0 0 0 0 0 0 0 0 127 0" result="hardAlpha"/>
<feOffset dy="1.90101"/>
<feGaussianBlur stdDeviation="0.950503"/>
<feComposite in2="hardAlpha" operator="arithmetic" k2="-1" k3="1"/>
<feColorMatrix type="matrix" values="0 0 0 0 1 0 0 0 0 0.532235 0 0 0 0 0 0 0 0 1 0"/>
<feBlend mode="normal" in2="shape" result="effect1_innerShadow_163_147"/>
<feColorMatrix in="SourceAlpha" type="matrix" values="0 0 0 0 0 0 0 0 0 0 0 0 0 0 0 0 0 0 127 0" result="hardAlpha"/>
<feOffset dy="-1.90101"/>
<feGaussianBlur stdDeviation="0.950503"/>
<feComposite in2="hardAlpha" operator="arithmetic" k2="-1" k3="1"/>
<feColorMatrix type="matrix" values="0 0 0 0 0.712157 0 0 0 0 0.367059 0 0 0 0 0 0 0 0 1 0"/>
<feBlend mode="normal" in2="effect1_innerShadow_163_147" result="effect2_innerShadow_163_147"/>
</filter>
<linearGradient id="paint0_linear_163_147" x1="23.4417" y1="0.797363" x2="23.4417" y2="45.7974" gradientUnits="userSpaceOnUse">
<stop stop-color="#FE8300"/>
<stop offset="1" stop-color="#BF6200"/>
</linearGradient>
</defs>
</svg>
