<svg width="60" height="60" viewBox="0 0 60 60" fill="none" xmlns="http://www.w3.org/2000/svg">
<g filter="url(#filter0_ii_156_2)">
<path d="M56.4939 29.3533L52.6827 9.05799C52.5895 8.56329 52.3955 8.09274 52.1126 7.67528C51.8297 7.25783 51.4638 6.9023 51.0375 6.63054C50.6112 6.35879 50.1334 6.17657 49.6335 6.09508C49.1337 6.01359 48.6224 6.03456 48.131 6.15669L48.0591 6.17745L35.8687 9.74988H25.2613L13.0709 6.18898L12.9989 6.16822C12.5076 6.04609 11.9962 6.02512 11.4964 6.10661C10.9966 6.1881 10.5188 6.37032 10.0925 6.64208C9.66612 6.91383 9.30024 7.26936 9.01732 7.68682C8.73439 8.10427 8.5404 8.57482 8.44727 9.06952L4.63604 29.3533C4.47306 30.1656 4.59404 31.0089 4.97896 31.7437C5.36389 32.4784 5.98969 33.0606 6.75287 33.3939C7.24163 33.6166 7.77263 33.733 8.31033 33.7352C8.9539 33.7349 9.58558 33.5629 10.1393 33.2371V42.9604C10.1393 45.407 11.1175 47.7535 12.8587 49.4835C14.5998 51.2136 16.9614 52.1855 19.4237 52.1855H41.7062C44.1686 52.1855 46.5301 51.2136 48.2713 49.4835C50.0124 47.7535 50.9906 45.407 50.9906 42.9604V33.2394C51.5438 33.5646 52.1745 33.7366 52.8173 33.7375C53.3556 33.736 53.8873 33.6204 54.3771 33.3985C55.1412 33.065 55.7676 32.4821 56.1526 31.7464C56.5376 31.0107 56.658 30.1663 56.4939 29.3533ZM8.28247 30.0452L12.096 9.74988L21.8609 12.6028L8.28247 30.0452ZM41.7062 48.4954H32.4218V45.5688L35.5925 42.4207C35.9409 42.0745 36.1366 41.6049 36.1366 41.1153C36.1366 40.6257 35.9409 40.1562 35.5925 39.81C35.244 39.4638 34.7715 39.2693 34.2787 39.2693C33.786 39.2693 33.3134 39.4638 32.965 39.81L30.565 42.197L28.165 39.81C27.8165 39.4638 27.344 39.2693 26.8512 39.2693C26.3585 39.2693 25.8859 39.4638 25.5375 39.81C25.1891 40.1562 24.9933 40.6257 24.9933 41.1153C24.9933 41.6049 25.1891 42.0745 25.5375 42.4207L28.7081 45.5688V48.4954H19.4237C17.9463 48.4954 16.5294 47.9123 15.4847 46.8743C14.44 45.8362 13.8531 44.4284 13.8531 42.9604V28.9174L25.9042 13.4399H35.2234L47.2768 28.9174V42.9604C47.2768 44.4284 46.6899 45.8362 45.6452 46.8743C44.6006 47.9123 43.1836 48.4954 41.7062 48.4954ZM52.8475 30.0452L39.2691 12.6028L49.0339 9.74988L52.8475 30.0452ZM24.9943 32.8127C24.9943 33.3601 24.831 33.8952 24.5249 34.3503C24.2189 34.8054 23.7839 35.1601 23.2749 35.3696C22.766 35.5791 22.2059 35.6339 21.6656 35.5271C21.1253 35.4203 20.6291 35.1567 20.2395 34.7697C19.85 34.3826 19.5847 33.8895 19.4772 33.3526C19.3698 32.8158 19.4249 32.2593 19.6357 31.7536C19.8466 31.2479 20.2036 30.8157 20.6616 30.5116C21.1196 30.2075 21.6582 30.0452 22.209 30.0452C22.9477 30.0452 23.6562 30.3368 24.1785 30.8558C24.7009 31.3748 24.9943 32.0787 24.9943 32.8127ZM41.7062 32.8127C41.7062 33.3601 41.5429 33.8952 41.2368 34.3503C40.9308 34.8054 40.4957 35.1601 39.9868 35.3696C39.4778 35.5791 38.9178 35.6339 38.3775 35.5271C37.8372 35.4203 37.3409 35.1567 36.9514 34.7697C36.5619 34.3826 36.2966 33.8895 36.1891 33.3526C36.0816 32.8158 36.1368 32.2593 36.3476 31.7536C36.5584 31.2479 36.9154 30.8157 37.3735 30.5116C37.8315 30.2075 38.37 30.0452 38.9209 30.0452C39.6596 30.0452 40.3681 30.3368 40.8904 30.8558C41.4128 31.3748 41.7062 32.0787 41.7062 32.8127Z" fill="url(#paint0_linear_156_2)"/>
</g>
<defs>
<filter id="filter0_ii_156_2" x="4.5654" y="4.05846" width="52" height="50.115" filterUnits="userSpaceOnUse" color-interpolation-filters="sRGB">
<feFlood flood-opacity="0" result="BackgroundImageFix"/>
<feBlend mode="normal" in="SourceGraphic" in2="BackgroundImageFix" result="shape"/>
<feColorMatrix in="SourceAlpha" type="matrix" values="0 0 0 0 0 0 0 0 0 0 0 0 0 0 0 0 0 0 127 0" result="hardAlpha"/>
<feOffset dy="1.98792"/>
<feGaussianBlur stdDeviation="0.993962"/>
<feComposite in2="hardAlpha" operator="arithmetic" k2="-1" k3="1"/>
<feColorMatrix type="matrix" values="0 0 0 0 0.686902 0 0 0 0 0.345726 0 0 0 0 0 0 0 0 1 0"/>
<feBlend mode="normal" in2="shape" result="effect1_innerShadow_156_2"/>
<feColorMatrix in="SourceAlpha" type="matrix" values="0 0 0 0 0 0 0 0 0 0 0 0 0 0 0 0 0 0 127 0" result="hardAlpha"/>
<feOffset dy="-1.98792"/>
<feGaussianBlur stdDeviation="0.993962"/>
<feComposite in2="hardAlpha" operator="arithmetic" k2="-1" k3="1"/>
<feColorMatrix type="matrix" values="0 0 0 0 0.473725 0 0 0 0 0.238431 0 0 0 0 0 0 0 0 1 0"/>
<feBlend mode="normal" in2="effect1_innerShadow_156_2" result="effect2_innerShadow_156_2"/>
</filter>
<linearGradient id="paint0_linear_156_2" x1="30.5654" y1="6.04639" x2="30.5654" y2="52.1855" gradientUnits="userSpaceOnUse">
<stop stop-color="#A95500"/>
<stop offset="1" stop-color="#7F4000"/>
</linearGradient>
</defs>
</svg>
