<svg width="53" height="47" viewBox="0 0 53 47" fill="none" xmlns="http://www.w3.org/2000/svg">
<g filter="url(#filter0_ii_163_148)">
<path d="M52.4939 23.3533L48.6827 3.05799C48.5895 2.56329 48.3955 2.09274 48.1126 1.67528C47.8297 1.25783 47.4638 0.902296 47.0375 0.630544C46.6112 0.358793 46.1334 0.176569 45.6335 0.0950787C45.1337 0.0135887 44.6224 0.0345551 44.131 0.156689L44.0591 0.177445L31.8687 3.74988H21.2613L9.07089 0.188976L8.99894 0.16822C8.50756 0.0460863 7.99623 0.0251199 7.4964 0.10661C6.99656 0.1881 6.51879 0.370324 6.09246 0.642075C5.66612 0.913827 5.30024 1.26936 5.01732 1.68682C4.73439 2.10427 4.5404 2.57482 4.44727 3.06952L0.636037 23.3533C0.473057 24.1656 0.594035 25.0089 0.97896 25.7437C1.36389 26.4784 1.98969 27.0606 2.75287 27.3939C3.24163 27.6166 3.77263 27.733 4.31033 27.7352C4.9539 27.7349 5.58558 27.5629 6.13935 27.2371V36.9604C6.13935 39.407 7.11752 41.7535 8.85868 43.4835C10.5998 45.2136 12.9614 46.1855 15.4237 46.1855H37.7062C40.1686 46.1855 42.5301 45.2136 44.2713 43.4835C46.0124 41.7535 46.9906 39.407 46.9906 36.9604V27.2394C47.5438 27.5646 48.1745 27.7366 48.8173 27.7375C49.3556 27.736 49.8873 27.6204 50.3771 27.3985C51.1412 27.065 51.7676 26.4821 52.1526 25.7464C52.5376 25.0107 52.658 24.1663 52.4939 23.3533ZM4.28247 24.0452L8.09603 3.74988L17.8609 6.60275L4.28247 24.0452ZM37.7062 42.4954H28.4218V39.5688L31.5925 36.4207C31.9409 36.0745 32.1366 35.6049 32.1366 35.1153C32.1366 34.6257 31.9409 34.1562 31.5925 33.81C31.244 33.4638 30.7715 33.2693 30.2787 33.2693C29.786 33.2693 29.3134 33.4638 28.965 33.81L26.565 36.197L24.165 33.81C23.8165 33.4638 23.344 33.2693 22.8512 33.2693C22.3585 33.2693 21.8859 33.4638 21.5375 33.81C21.1891 34.1562 20.9933 34.6257 20.9933 35.1153C20.9933 35.6049 21.1891 36.0745 21.5375 36.4207L24.7081 39.5688V42.4954H15.4237C13.9463 42.4954 12.5294 41.9123 11.4847 40.8743C10.44 39.8362 9.8531 38.4284 9.8531 36.9604V22.9174L21.9042 7.43993H31.2234L43.2768 22.9174V36.9604C43.2768 38.4284 42.6899 39.8362 41.6452 40.8743C40.6006 41.9123 39.1836 42.4954 37.7062 42.4954ZM48.8475 24.0452L35.2691 6.60275L45.0339 3.74988L48.8475 24.0452ZM20.9943 26.8127C20.9943 27.3601 20.831 27.8952 20.5249 28.3503C20.2189 28.8054 19.7839 29.1601 19.2749 29.3696C18.766 29.5791 18.2059 29.6339 17.6656 29.5271C17.1253 29.4203 16.6291 29.1567 16.2395 28.7697C15.85 28.3826 15.5847 27.8895 15.4772 27.3526C15.3698 26.8158 15.4249 26.2593 15.6357 25.7536C15.8466 25.2479 16.2036 24.8157 16.6616 24.5116C17.1196 24.2075 17.6582 24.0452 18.209 24.0452C18.9477 24.0452 19.6562 24.3368 20.1785 24.8558C20.7009 25.3748 20.9943 26.0787 20.9943 26.8127ZM37.7062 26.8127C37.7062 27.3601 37.5429 27.8952 37.2368 28.3503C36.9308 28.8054 36.4957 29.1601 35.9868 29.3696C35.4778 29.5791 34.9178 29.6339 34.3775 29.5271C33.8372 29.4203 33.3409 29.1567 32.9514 28.7697C32.5619 28.3826 32.2966 27.8895 32.1891 27.3526C32.0816 26.8158 32.1368 26.2593 32.3476 25.7536C32.5584 25.2479 32.9154 24.8157 33.3735 24.5116C33.8315 24.2075 34.37 24.0452 34.9209 24.0452C35.6596 24.0452 36.3681 24.3368 36.8904 24.8558C37.4128 25.3748 37.7062 26.0787 37.7062 26.8127Z" fill="url(#paint0_linear_163_148)"/>
</g>
<defs>
<filter id="filter0_ii_163_148" x="0.565399" y="-1.94154" width="52" height="50.115" filterUnits="userSpaceOnUse" color-interpolation-filters="sRGB">
<feFlood flood-opacity="0" result="BackgroundImageFix"/>
<feBlend mode="normal" in="SourceGraphic" in2="BackgroundImageFix" result="shape"/>
<feColorMatrix in="SourceAlpha" type="matrix" values="0 0 0 0 0 0 0 0 0 0 0 0 0 0 0 0 0 0 127 0" result="hardAlpha"/>
<feOffset dy="1.98792"/>
<feGaussianBlur stdDeviation="0.993962"/>
<feComposite in2="hardAlpha" operator="arithmetic" k2="-1" k3="1"/>
<feColorMatrix type="matrix" values="0 0 0 0 0.686902 0 0 0 0 0.345726 0 0 0 0 0 0 0 0 1 0"/>
<feBlend mode="normal" in2="shape" result="effect1_innerShadow_163_148"/>
<feColorMatrix in="SourceAlpha" type="matrix" values="0 0 0 0 0 0 0 0 0 0 0 0 0 0 0 0 0 0 127 0" result="hardAlpha"/>
<feOffset dy="-1.98792"/>
<feGaussianBlur stdDeviation="0.993962"/>
<feComposite in2="hardAlpha" operator="arithmetic" k2="-1" k3="1"/>
<feColorMatrix type="matrix" values="0 0 0 0 0.473725 0 0 0 0 0.238431 0 0 0 0 0 0 0 0 1 0"/>
<feBlend mode="normal" in2="effect1_innerShadow_163_148" result="effect2_innerShadow_163_148"/>
</filter>
<linearGradient id="paint0_linear_163_148" x1="26.5654" y1="0.0463867" x2="26.5654" y2="46.1855" gradientUnits="userSpaceOnUse">
<stop stop-color="#A95500"/>
<stop offset="1" stop-color="#7F4000"/>
</linearGradient>
</defs>
</svg>
