<svg width="21" height="18" viewBox="0 0 21 18" fill="none" xmlns="http://www.w3.org/2000/svg">
<path d="M15.2288 0C13.3735 0 11.7491 0.797812 10.7366 2.14637C9.72403 0.797812 8.09966 0 6.24438 0C4.76756 0.00166457 3.35169 0.58907 2.30742 1.63335C1.26314 2.67762 0.675737 4.09348 0.674072 5.57031C0.674072 11.8594 9.99895 16.9499 10.3961 17.1602C10.5007 17.2165 10.6177 17.2459 10.7366 17.2459C10.8554 17.2459 10.9724 17.2165 11.0771 17.1602C11.4742 16.9499 20.7991 11.8594 20.7991 5.57031C20.7974 4.09348 20.21 2.67762 19.1657 1.63335C18.1215 0.58907 16.7056 0.00166457 15.2288 0ZM10.7366 15.7047C9.09603 14.7487 2.11157 10.394 2.11157 5.57031C2.113 4.47466 2.54888 3.42429 3.32362 2.64955C4.09836 1.8748 5.14873 1.43893 6.24438 1.4375C7.99185 1.4375 9.45899 2.36828 10.0717 3.86328C10.1259 3.99511 10.218 4.10786 10.3364 4.18721C10.4548 4.26656 10.5941 4.30893 10.7366 4.30893C10.8791 4.30893 11.0184 4.26656 11.1368 4.18721C11.2551 4.10786 11.3473 3.99511 11.4014 3.86328C12.0141 2.36559 13.4813 1.4375 15.2288 1.4375C16.3244 1.43893 17.3748 1.8748 18.1495 2.64955C18.9243 3.42429 19.3601 4.47466 19.3616 5.57031C19.3616 10.3868 12.3753 14.7479 10.7366 15.7047Z" fill="#974C00"/>
</svg>
