<svg width="76" height="32" viewBox="0 0 76 32" fill="none" xmlns="http://www.w3.org/2000/svg">
<g filter="url(#filter0_ii_165_238)">
<rect x="0.665375" y="0.916504" width="74.3791" height="30.0921" rx="15.046" fill="url(#paint0_linear_165_238)"/>
</g>
<g filter="url(#filter1_ii_165_238)">
<rect x="4.87771" y="3.96265" width="24" height="24" rx="12" fill="url(#paint1_linear_165_238)"/>
</g>
<path d="M45.8869 21.5824C45.1909 21.5824 44.5509 21.4624 43.9669 21.2224C43.3829 20.9824 42.8749 20.6464 42.4429 20.2144C42.0189 19.7824 41.6869 19.2744 41.4469 18.6904C41.2149 18.1064 41.0989 17.4664 41.0989 16.7704C41.0989 16.0824 41.2149 15.4464 41.4469 14.8624C41.6869 14.2784 42.0189 13.7704 42.4429 13.3384C42.8749 12.9064 43.3829 12.5704 43.9669 12.3304C44.5509 12.0904 45.1909 11.9704 45.8869 11.9704C46.5749 11.9704 47.2109 12.0904 47.7949 12.3304C48.3789 12.5704 48.8869 12.9064 49.3189 13.3384C49.7509 13.7704 50.0829 14.2784 50.3149 14.8624C50.5549 15.4464 50.6749 16.0824 50.6749 16.7704C50.6749 17.4664 50.5549 18.1064 50.3149 18.6904C50.0829 19.2744 49.7509 19.7824 49.3189 20.2144C48.8869 20.6464 48.3789 20.9824 47.7949 21.2224C47.2109 21.4624 46.5749 21.5824 45.8869 21.5824ZM45.8869 20.6944C46.4389 20.6944 46.9509 20.5984 47.4229 20.4064C47.8949 20.2064 48.3029 19.9304 48.6469 19.5784C48.9989 19.2184 49.2709 18.8024 49.4629 18.3304C49.6549 17.8504 49.7509 17.3304 49.7509 16.7704C49.7509 16.2184 49.6549 15.7064 49.4629 15.2344C49.2709 14.7544 48.9989 14.3384 48.6469 13.9864C48.3029 13.6264 47.8949 13.3504 47.4229 13.1584C46.9509 12.9584 46.4389 12.8584 45.8869 12.8584C45.3269 12.8584 44.8109 12.9584 44.3389 13.1584C43.8669 13.3504 43.4549 13.6264 43.1029 13.9864C42.7589 14.3384 42.4909 14.7544 42.2989 15.2344C42.1069 15.7064 42.0109 16.2184 42.0109 16.7704C42.0109 17.3304 42.1069 17.8504 42.2989 18.3304C42.4909 18.8024 42.7589 19.2184 43.1029 19.5784C43.4549 19.9304 43.8669 20.2064 44.3389 20.4064C44.8109 20.5984 45.3269 20.6944 45.8869 20.6944ZM52.3297 21.4624C52.2017 21.4624 52.0897 21.4184 51.9937 21.3304C51.9057 21.2344 51.8617 21.1224 51.8617 20.9944V12.5584C51.8617 12.4224 51.9057 12.3104 51.9937 12.2224C52.0817 12.1344 52.1937 12.0904 52.3297 12.0904H57.9577C58.0937 12.0904 58.2057 12.1344 58.2937 12.2224C58.3817 12.3024 58.4257 12.4104 58.4257 12.5464C58.4257 12.6664 58.3817 12.7704 58.2937 12.8584C58.2057 12.9464 58.0937 12.9904 57.9577 12.9904H52.7977V16.3024H56.5537C56.6897 16.3024 56.8017 16.3464 56.8897 16.4344C56.9777 16.5224 57.0217 16.6304 57.0217 16.7584C57.0217 16.8864 56.9777 16.9944 56.8897 17.0824C56.8017 17.1704 56.6897 17.2144 56.5537 17.2144H52.7977V20.9944C52.7977 21.1224 52.7537 21.2344 52.6657 21.3304C52.5777 21.4184 52.4657 21.4624 52.3297 21.4624ZM59.8297 21.4624C59.7017 21.4624 59.5897 21.4184 59.4937 21.3304C59.4057 21.2344 59.3617 21.1224 59.3617 20.9944V12.5584C59.3617 12.4224 59.4057 12.3104 59.4937 12.2224C59.5817 12.1344 59.6937 12.0904 59.8297 12.0904H65.4577C65.5937 12.0904 65.7057 12.1344 65.7937 12.2224C65.8817 12.3024 65.9257 12.4104 65.9257 12.5464C65.9257 12.6664 65.8817 12.7704 65.7937 12.8584C65.7057 12.9464 65.5937 12.9904 65.4577 12.9904H60.2977V16.3024H64.0537C64.1897 16.3024 64.3017 16.3464 64.3897 16.4344C64.4777 16.5224 64.5217 16.6304 64.5217 16.7584C64.5217 16.8864 64.4777 16.9944 64.3897 17.0824C64.3017 17.1704 64.1897 17.2144 64.0537 17.2144H60.2977V20.9944C60.2977 21.1224 60.2537 21.2344 60.1657 21.3304C60.0777 21.4184 59.9657 21.4624 59.8297 21.4624Z" fill="#974C00"/>
<defs>
<filter id="filter0_ii_165_238" x="0.665375" y="-1.08737" width="74.3791" height="33.0959" filterUnits="userSpaceOnUse" color-interpolation-filters="sRGB">
<feFlood flood-opacity="0" result="BackgroundImageFix"/>
<feBlend mode="normal" in="SourceGraphic" in2="BackgroundImageFix" result="shape"/>
<feColorMatrix in="SourceAlpha" type="matrix" values="0 0 0 0 0 0 0 0 0 0 0 0 0 0 0 0 0 0 127 0" result="hardAlpha"/>
<feOffset dy="1"/>
<feGaussianBlur stdDeviation="1.00193"/>
<feComposite in2="hardAlpha" operator="arithmetic" k2="-1" k3="1"/>
<feColorMatrix type="matrix" values="0 0 0 0 0.987137 0 0 0 0 0.987137 0 0 0 0 0.987137 0 0 0 1 0"/>
<feBlend mode="normal" in2="shape" result="effect1_innerShadow_165_238"/>
<feColorMatrix in="SourceAlpha" type="matrix" values="0 0 0 0 0 0 0 0 0 0 0 0 0 0 0 0 0 0 127 0" result="hardAlpha"/>
<feOffset dy="-2.00387"/>
<feGaussianBlur stdDeviation="1.00193"/>
<feComposite in2="hardAlpha" operator="arithmetic" k2="-1" k3="1"/>
<feColorMatrix type="matrix" values="0 0 0 0 0.682353 0 0 0 0 0.682353 0 0 0 0 0.682353 0 0 0 0.92 0"/>
<feBlend mode="normal" in2="effect1_innerShadow_165_238" result="effect2_innerShadow_165_238"/>
</filter>
<filter id="filter1_ii_165_238" x="4.87771" y="2.96265" width="24" height="31.7994" filterUnits="userSpaceOnUse" color-interpolation-filters="sRGB">
<feFlood flood-opacity="0" result="BackgroundImageFix"/>
<feBlend mode="normal" in="SourceGraphic" in2="BackgroundImageFix" result="shape"/>
<feColorMatrix in="SourceAlpha" type="matrix" values="0 0 0 0 0 0 0 0 0 0 0 0 0 0 0 0 0 0 127 0" result="hardAlpha"/>
<feOffset dy="6.79944"/>
<feGaussianBlur stdDeviation="3.39972"/>
<feComposite in2="hardAlpha" operator="arithmetic" k2="-1" k3="1"/>
<feColorMatrix type="matrix" values="0 0 0 0 1 0 0 0 0 0.564353 0 0 0 0 0 0 0 0 1 0"/>
<feBlend mode="normal" in2="shape" result="effect1_innerShadow_165_238"/>
<feColorMatrix in="SourceAlpha" type="matrix" values="0 0 0 0 0 0 0 0 0 0 0 0 0 0 0 0 0 0 127 0" result="hardAlpha"/>
<feOffset dy="-1"/>
<feGaussianBlur stdDeviation="3.39972"/>
<feComposite in2="hardAlpha" operator="arithmetic" k2="-1" k3="1"/>
<feColorMatrix type="matrix" values="0 0 0 0 0.634265 0 0 0 0 0.326912 0 0 0 0 0 0 0 0 1 0"/>
<feBlend mode="normal" in2="effect1_innerShadow_165_238" result="effect2_innerShadow_165_238"/>
</filter>
<linearGradient id="paint0_linear_165_238" x1="37.8549" y1="0.916504" x2="37.8549" y2="31.0086" gradientUnits="userSpaceOnUse">
<stop stop-color="#B6B6B6"/>
<stop offset="1" stop-color="#F3F3F3"/>
</linearGradient>
<linearGradient id="paint1_linear_165_238" x1="16.8777" y1="3.96265" x2="16.8777" y2="27.9627" gradientUnits="userSpaceOnUse">
<stop stop-color="#FFC581"/>
<stop offset="1" stop-color="#FF8401"/>
</linearGradient>
</defs>
</svg>
