<svg width="76" height="31" viewBox="0 0 76 31" fill="none" xmlns="http://www.w3.org/2000/svg">
<g filter="url(#filter0_ii_184_154)">
<rect x="0.731934" y="0.407471" width="74.3791" height="30.0921" rx="15.046" fill="url(#paint0_linear_184_154)"/>
</g>
<g filter="url(#filter1_ii_184_154)">
<rect x="46.9985" y="3.45361" width="24" height="24" rx="12" fill="url(#paint1_linear_184_154)"/>
</g>
<path d="M14.2482 21.0734C13.5522 21.0734 12.9122 20.9534 12.3282 20.7134C11.7442 20.4734 11.2362 20.1374 10.8042 19.7054C10.3802 19.2734 10.0482 18.7654 9.80819 18.1814C9.57619 17.5974 9.46019 16.9574 9.46019 16.2614C9.46019 15.5734 9.57619 14.9374 9.80819 14.3534C10.0482 13.7694 10.3802 13.2614 10.8042 12.8294C11.2362 12.3974 11.7442 12.0614 12.3282 11.8214C12.9122 11.5814 13.5522 11.4614 14.2482 11.4614C14.9362 11.4614 15.5722 11.5814 16.1562 11.8214C16.7402 12.0614 17.2482 12.3974 17.6802 12.8294C18.1122 13.2614 18.4442 13.7694 18.6762 14.3534C18.9162 14.9374 19.0362 15.5734 19.0362 16.2614C19.0362 16.9574 18.9162 17.5974 18.6762 18.1814C18.4442 18.7654 18.1122 19.2734 17.6802 19.7054C17.2482 20.1374 16.7402 20.4734 16.1562 20.7134C15.5722 20.9534 14.9362 21.0734 14.2482 21.0734ZM14.2482 20.1854C14.8002 20.1854 15.3122 20.0894 15.7842 19.8974C16.2562 19.6974 16.6642 19.4214 17.0082 19.0694C17.3602 18.7094 17.6322 18.2934 17.8242 17.8214C18.0162 17.3414 18.1122 16.8214 18.1122 16.2614C18.1122 15.7094 18.0162 15.1974 17.8242 14.7254C17.6322 14.2454 17.3602 13.8294 17.0082 13.4774C16.6642 13.1174 16.2562 12.8414 15.7842 12.6494C15.3122 12.4494 14.8002 12.3494 14.2482 12.3494C13.6882 12.3494 13.1722 12.4494 12.7002 12.6494C12.2282 12.8414 11.8162 13.1174 11.4642 13.4774C11.1202 13.8294 10.8522 14.2454 10.6602 14.7254C10.4682 15.1974 10.3722 15.7094 10.3722 16.2614C10.3722 16.8214 10.4682 17.3414 10.6602 17.8214C10.8522 18.2934 11.1202 18.7094 11.4642 19.0694C11.8162 19.4214 12.2282 19.6974 12.7002 19.8974C13.1722 20.0894 13.6882 20.1854 14.2482 20.1854ZM21.435 20.9534C21.299 20.9534 21.187 20.9094 21.099 20.8214C21.011 20.7334 20.967 20.6214 20.967 20.4854V12.0494C20.967 11.9134 21.011 11.8014 21.099 11.7134C21.187 11.6254 21.299 11.5814 21.435 11.5814C21.579 11.5814 21.699 11.6374 21.795 11.7494L27.531 19.2854V12.0494C27.531 11.9134 27.575 11.8014 27.663 11.7134C27.751 11.6254 27.863 11.5814 27.999 11.5814C28.127 11.5814 28.235 11.6254 28.323 11.7134C28.419 11.8014 28.467 11.9134 28.467 12.0494V20.4854C28.467 20.6214 28.419 20.7334 28.323 20.8214C28.235 20.9094 28.127 20.9534 27.999 20.9534C27.935 20.9534 27.871 20.9414 27.807 20.9174C27.743 20.8934 27.691 20.8534 27.651 20.7974L21.903 13.2614V20.4854C21.903 20.6214 21.855 20.7334 21.759 20.8214C21.671 20.9094 21.563 20.9534 21.435 20.9534Z" fill="#974C00"/>
<defs>
<filter id="filter0_ii_184_154" x="0.731934" y="-1.5964" width="74.379" height="33.0959" filterUnits="userSpaceOnUse" color-interpolation-filters="sRGB">
<feFlood flood-opacity="0" result="BackgroundImageFix"/>
<feBlend mode="normal" in="SourceGraphic" in2="BackgroundImageFix" result="shape"/>
<feColorMatrix in="SourceAlpha" type="matrix" values="0 0 0 0 0 0 0 0 0 0 0 0 0 0 0 0 0 0 127 0" result="hardAlpha"/>
<feOffset dy="1"/>
<feGaussianBlur stdDeviation="1.00193"/>
<feComposite in2="hardAlpha" operator="arithmetic" k2="-1" k3="1"/>
<feColorMatrix type="matrix" values="0 0 0 0 0.987137 0 0 0 0 0.987137 0 0 0 0 0.987137 0 0 0 1 0"/>
<feBlend mode="normal" in2="shape" result="effect1_innerShadow_184_154"/>
<feColorMatrix in="SourceAlpha" type="matrix" values="0 0 0 0 0 0 0 0 0 0 0 0 0 0 0 0 0 0 127 0" result="hardAlpha"/>
<feOffset dy="-2.00387"/>
<feGaussianBlur stdDeviation="1.00193"/>
<feComposite in2="hardAlpha" operator="arithmetic" k2="-1" k3="1"/>
<feColorMatrix type="matrix" values="0 0 0 0 0.682353 0 0 0 0 0.682353 0 0 0 0 0.682353 0 0 0 0.92 0"/>
<feBlend mode="normal" in2="effect1_innerShadow_184_154" result="effect2_innerShadow_184_154"/>
</filter>
<filter id="filter1_ii_184_154" x="46.9985" y="2.45361" width="24" height="31.7994" filterUnits="userSpaceOnUse" color-interpolation-filters="sRGB">
<feFlood flood-opacity="0" result="BackgroundImageFix"/>
<feBlend mode="normal" in="SourceGraphic" in2="BackgroundImageFix" result="shape"/>
<feColorMatrix in="SourceAlpha" type="matrix" values="0 0 0 0 0 0 0 0 0 0 0 0 0 0 0 0 0 0 127 0" result="hardAlpha"/>
<feOffset dy="6.79944"/>
<feGaussianBlur stdDeviation="3.39972"/>
<feComposite in2="hardAlpha" operator="arithmetic" k2="-1" k3="1"/>
<feColorMatrix type="matrix" values="0 0 0 0 1 0 0 0 0 0.564353 0 0 0 0 0 0 0 0 1 0"/>
<feBlend mode="normal" in2="shape" result="effect1_innerShadow_184_154"/>
<feColorMatrix in="SourceAlpha" type="matrix" values="0 0 0 0 0 0 0 0 0 0 0 0 0 0 0 0 0 0 127 0" result="hardAlpha"/>
<feOffset dy="-1"/>
<feGaussianBlur stdDeviation="3.39972"/>
<feComposite in2="hardAlpha" operator="arithmetic" k2="-1" k3="1"/>
<feColorMatrix type="matrix" values="0 0 0 0 0.634265 0 0 0 0 0.326912 0 0 0 0 0 0 0 0 1 0"/>
<feBlend mode="normal" in2="effect1_innerShadow_184_154" result="effect2_innerShadow_184_154"/>
</filter>
<linearGradient id="paint0_linear_184_154" x1="37.9215" y1="0.407471" x2="37.9215" y2="30.4995" gradientUnits="userSpaceOnUse">
<stop stop-color="#B6B6B6"/>
<stop offset="1" stop-color="#F3F3F3"/>
</linearGradient>
<linearGradient id="paint1_linear_184_154" x1="58.9985" y1="3.45361" x2="58.9985" y2="27.4536" gradientUnits="userSpaceOnUse">
<stop stop-color="#FFC581"/>
<stop offset="1" stop-color="#FF8401"/>
</linearGradient>
</defs>
</svg>
