<?xml version="1.0" encoding="utf-8"?>
<!DOCTYPE svg PUBLIC "-//W3C//DTD SVG 1.0//EN" "http://www.w3.org/TR/2001/REC-SVG-20010904/DTD/svg10.dtd">
<svg version="1.0" xmlns="http://www.w3.org/2000/svg" width="32px" height="32px" viewBox="0 0 350 350" preserveAspectRatio="xMidYMid meet">
 <g fill="#58300a">
  <path d="M169 347.7 c-0.3 -0.3 -8.4 -1 -18 -1.7 -25 -1.6 -28.6 -2.6 -47.9 -12.3 -9.1 -4.5 -19.4 -9.5 -22.9 -11.1 -8.9 -4 -22.7 -14.9 -37.2 -29.5 -10.7 -10.8 -13.2 -13.9 -17.3 -21.7 -2.6 -5 -6.3 -13.6 -8.3 -19 -7.9 -21.8 -16.4 -60.7 -16.4 -75.2 0 -5.6 6 -30.9 15.5 -64.7 4.6 -16.6 6.3 -21.1 10 -27 6.4 -10.1 21.7 -29.5 31.3 -39.7 7 -7.3 10.2 -9.8 19.1 -14.7 15.3 -8.4 21.8 -11 50.4 -20.6 29 -9.8 35 -10.8 45.7 -8 4.9 1.3 11.5 1.8 26.5 2 28.4 0.4 35.6 2.6 63.5 18.9 6.9 4.1 17.6 10.2 23.9 13.7 26 14.6 39.2 33.6 54.8 79.5 l6.8 19.9 0 38 c-0.1 31 -0.4 39.9 -1.8 48 -3.1 18.3 -9.3 36 -18.7 52.9 -4.5 8.1 -7.1 11.4 -14.9 18.8 -20.6 19.5 -39.1 32.5 -54.1 38.1 -26.7 10 -37 12.5 -55.6 13.8 -27.1 1.8 -33.9 2.1 -34.4 1.6z m32 -11.7 c14.1 -0.9 24.3 -3.1 41 -9.1 6.3 -2.2 12.9 -4.5 14.7 -5 3.8 -1.2 4.9 -3 14.1 -23 22.2 -48.7 37.2 -104.5 37.6 -140.4 0.2 -19.9 -5.2 -33.8 -14.8 -38.3 -5.2 -2.5 -6.5 -2.6 -15.3 -1.6 l-6.2 0.7 -1.5 -5.4 c-2.2 -7.4 -10.8 -24.2 -15.2 -29.6 -7.8 -9.5 -15.1 -11.9 -29.8 -9.8 -5 0.7 -10.4 1.8 -11.9 2.4 -4.6 1.8 -7.6 1.3 -16.5 -2.5 -9.1 -3.9 -25.7 -8.4 -31 -8.4 -6.7 0 -15.9 5.8 -28.8 18.3 -13.1 12.6 -15.4 13.7 -20.9 10.1 -3.2 -2.1 -7.3 -1.3 -15.3 2.7 -7.3 3.6 -11.1 7.7 -15.8 17 -3.6 7.3 -11.8 27.2 -16.1 39.4 -7.8 22.1 -23.9 69.9 -29.6 87.9 l-6.5 20.9 3 5.6 c3.6 6.5 25.3 28.5 36.9 37.4 4.8 3.6 12.7 8.1 21.5 12.1 7.6 3.5 17.1 8.2 20.9 10.4 4.2 2.4 10 4.6 14.5 5.6 10.1 2.2 40.6 4.6 50.5 4 4.4 -0.3 13.6 -0.9 20.5 -1.4z m91.6 -38.7 c11.2 -9.3 24.4 -22.5 24.4 -24.3 0 -0.6 1.1 -2.8 2.5 -4.9 4.4 -7.1 11.7 -25.4 14.6 -36.9 3.8 -14.9 4.6 -26.7 4.5 -62.7 l-0.2 -30 -6.1 -17 c-8.6 -23.9 -12.4 -32.5 -19.6 -44.4 -9 -15 -18 -23.3 -36.8 -33.5 -7.9 -4.4 -16.6 -9.4 -19.4 -11.1 -15.2 -9.5 -26.6 -14.6 -36.6 -16.4 -3.5 -0.6 -14.9 -1.3 -25.4 -1.5 -12.9 -0.3 -20.9 -0.9 -25 -2 -3.3 -0.9 -7.6 -1.3 -9.5 -1 -8.4 1.4 -55.1 17.8 -66.5 23.4 -18.4 9.1 -22.3 11.9 -32.1 23.3 -10.4 12.1 -25.7 32.4 -28.4 37.7 -2.4 4.8 -7.9 24 -17.6 62 l-4.5 17.5 1.1 10 c1 10 3.2 20.4 7.5 36.5 1.2 4.7 2.6 9.8 2.9 11.3 0.4 1.5 1.6 5.3 2.8 8.4 l2 5.6 8.5 -26.8 c15.9 -50.6 33.4 -98.3 42.5 -115.8 4.4 -8.5 8.7 -12.6 17.8 -17.3 4.9 -2.4 6.6 -2.8 15.2 -2.8 l9.7 -0.1 10.3 -10 c7.5 -7.3 12.2 -10.9 17.3 -13.5 6.8 -3.4 7.3 -3.5 18.5 -3.5 12.6 0.1 22.7 2.2 35.3 7.5 5.2 2.2 7.4 2.6 9.7 2 1.5 -0.4 7.8 -1.4 13.8 -2 22.3 -2.5 32.9 2.3 42.9 19.5 3.5 6.1 8.7 17.1 10.6 22.8 0.5 1.4 1.9 1.7 7.4 1.7 9.1 0 13.7 1.4 18.4 5.8 4.5 4 7.9 9.9 10.3 18.1 2.4 8.2 2.2 40.8 -0.4 56.1 -6 35.7 -10.5 52.3 -24.1 89.5 -1.2 3.3 -4.6 11.5 -7.5 18.3 -3.3 7.8 -4.7 11.9 -3.6 11.1 0.9 -0.8 6.7 -5.5 12.8 -10.6z"/>
  <path d="M199.5 260.6 c-15.4 -2.8 -29.2 -6.1 -35.6 -8.6 -2.5 -1 -13.1 -3.9 -23.5 -6.5 -22.7 -5.6 -37.1 -9.9 -40.2 -12.1 -3.1 -2.2 -6.9 -8.4 -9.8 -16 -3.3 -8.9 -3.4 -21 -0.1 -27.4 4.7 -9.4 17.1 -14.6 32.3 -13.7 l9.2 0.5 0.7 -2.6 c1.2 -4.7 6.4 -12.8 10.9 -17 8.7 -8.1 18.5 -11.2 34.6 -11.2 21.7 0 33.9 6 44.5 22 4.6 7 7.4 16 7.5 24 0 3.2 0.4 3.7 4.9 5.7 13.5 6.3 22.8 15.3 25.2 24.6 1.7 7.1 0.8 21.2 -1.9 26.4 -2.6 5.1 -8.1 9.7 -14.1 11.9 -7.8 2.8 -28.9 2.8 -44.6 0z m38.6 -9 c8.3 -3.5 13.8 -11.1 13.9 -18.9 0 -5.3 -4.1 -12.8 -9.7 -17.6 -4.2 -3.5 -13.6 -8.9 -18.4 -10.4 -1.2 -0.4 -1.9 -2.8 -2.7 -9.4 -4 -30.6 -33.6 -48.6 -60.4 -36.6 -10 4.4 -19.7 16.9 -21.4 27.6 -0.6 3.3 -1 3.7 -3.7 3.7 -1.7 0 -5.1 -1 -7.6 -2.2 -6.5 -3.3 -13.1 -3 -20 0.7 -10.6 5.8 -13.1 12.7 -8.6 23.5 4.4 10.5 7.3 13.4 16.3 16.4 4.2 1.4 14.2 4.1 22.2 6.1 22.6 5.6 29.1 7.3 34.6 9.4 6.6 2.6 29.6 7.6 42.9 9.5 5.6 0.8 19 -0.3 22.6 -1.8z"/>
  <path d="M254.1 189.4 c-3.4 -2.4 -5.1 -7.5 -5.1 -15.3 0 -9.4 1.5 -16.2 5.6 -24.8 4.7 -9.9 7.8 -12.3 15.8 -12.3 8.2 0 14 3.5 17.5 10.4 2.1 4.2 2.3 5.8 1.9 14.1 -0.3 8.3 -0.8 10.2 -3.9 16.2 -2.6 5.2 -4.5 7.5 -8.3 10.1 -4.5 3 -5.4 3.2 -13 3.2 -5.9 0 -8.8 -0.4 -10.5 -1.6z m16.6 -10.3 c4.5 -3.3 8.8 -11 9.8 -17.6 0.7 -5 -1.8 -10 -6.5 -13.3 l-3.4 -2.2 -2.7 2.6 c-5.2 5 -11 22.1 -9.3 27.7 1.9 6.2 6 7.2 12.1 2.8z"/>
  <path d="M97 159.7 c-4 -2 -6 -7.2 -6 -15.7 0 -14.2 4.9 -27.9 12.2 -34.5 3.9 -3.6 4.3 -3.7 9.9 -3.3 7.4 0.5 13.2 4.3 16.7 10.8 2.1 4.1 2.3 5.4 1.9 14 -0.3 7.4 -0.9 10.7 -2.9 15 -2.8 6.1 -7.4 11.1 -12.3 13.5 -4 1.8 -15.9 2 -19.5 0.2z m15.5 -10.4 c4 -2.9 8.4 -10.5 9.6 -16.6 1.1 -5.1 1 -5.9 -1 -9.1 -1.3 -2 -3.6 -4.5 -5.2 -5.7 l-3 -2.1 -2.9 2.7 c-3.5 3.4 -7.7 12.6 -9.1 19.9 -2.1 11.6 3.4 16.8 11.6 10.9z"/>
  <path d="M214.5 147 c-1.1 -0.4 -3.1 -2 -4.5 -3.5 -2.2 -2.3 -2.5 -3.7 -2.8 -11.4 -0.6 -14 3.9 -28.1 11.2 -35.4 3.3 -3.4 4.2 -3.7 9.2 -3.7 12.8 0 20.4 8.5 20.4 22.9 0 13.7 -6 25.5 -15.3 30 -4.5 2.2 -14.2 2.8 -18.2 1.1z m14.1 -11.5 c4 -3.1 8.3 -10.1 9.5 -15.7 1.3 -5.5 -0.3 -9.8 -5.3 -14.3 l-4 -3.7 -2.3 2.2 c-3.4 3.2 -7.3 11 -9 18.1 -2 8.5 -1.9 10.1 0.6 13.3 2.6 3.3 6.2 3.4 10.5 0.1z"/>
  <path d="M157.2 134 c-4.3 -2.6 -5.2 -5.4 -5.2 -15.8 0 -15.5 4.9 -29 12.6 -34.8 7.2 -5.5 20.9 -1.2 25.4 8 2.5 5.2 2.8 18.7 0.5 26.2 -2.2 7 -7.4 13.7 -12.9 16.2 -6.1 2.9 -15.8 3 -20.4 0.2z m15.9 -10.3 c5.2 -3.9 9 -11 9.7 -17.7 0.4 -4.2 0 -5.7 -2 -8.8 -1.4 -2 -3.7 -4.4 -5.3 -5.2 -2.7 -1.4 -2.8 -1.4 -6 2.3 -4.2 4.9 -7.6 13.6 -8.2 21.5 -0.5 5.6 -0.3 6.5 1.7 8.7 3.1 3.3 5 3.1 10.1 -0.8z"/>
 </g>
 <g fill="#c3b7ad">
  <path d="M152 339.5 c-22.2 -1.8 -30.6 -3.7 -39.5 -8.7 -3.8 -2.2 -13.3 -6.9 -20.9 -10.4 -17 -7.8 -24.5 -13.3 -42.6 -31.4 -10.6 -10.6 -14.2 -14.9 -16.7 -20 l-3.2 -6.5 7.1 -22.5 c6.2 -19.5 22.5 -68 30.1 -89.5 8.5 -23.9 17.7 -44.2 22.8 -49.9 6.9 -7.9 24.4 -13.2 30.5 -9.2 l2.5 1.7 12.2 -11.8 c14.5 -13.9 22.4 -18.6 31.7 -18.6 7.3 -0.1 22.4 3.8 33.3 8.4 8.3 3.5 9.1 3.7 12.5 2.5 2.1 -0.7 8.2 -1.9 13.7 -2.5 16.7 -2.1 24.9 0.5 32.9 10.2 4.4 5.4 13 22.2 15.2 29.6 1.3 4.7 1.8 5.2 3.7 4.7 9.3 -2.5 18.6 -0.6 24.1 4.9 3.4 3.4 7.2 10.4 8.1 15 3.7 19.1 2.9 35.8 -3.1 67 -6.2 31.8 -17.6 66.6 -32.6 99.4 -9.2 20 -10.3 21.8 -14.1 23 -1.8 0.5 -8.4 2.8 -14.7 5 -21.4 7.6 -30.2 9.1 -64.5 10.5 -6 0.3 -18.9 -0.1 -28.5 -0.9z m89.1 -81.9 c9.7 -3.5 15.7 -11.3 16.6 -21.7 1.4 -14.9 -7.2 -26.6 -25.8 -35.2 -4.5 -2 -4.9 -2.5 -4.9 -5.7 -0.1 -15.8 -9.9 -31.9 -24.6 -40.5 -12.1 -7.1 -34.2 -7.3 -47.5 -0.4 -8.8 4.4 -17 14.5 -19.9 24.5 l-1.2 4.2 -5.7 -2 c-6.8 -2.4 -14.5 -2 -21.7 1.1 -10.7 4.8 -15.3 11 -15.4 20.8 0 8.6 6.7 23.9 12.2 27.7 3.1 2.2 17.5 6.5 40.2 12.1 10.4 2.6 21 5.5 23.5 6.5 6.4 2.5 20.2 5.8 35.6 8.6 15.1 2.8 30.9 2.7 38.6 0z m33.5 -72.8 c3.7 -2.5 5.7 -4.9 8.2 -9.9 6.9 -13.4 5 -25.9 -4.7 -32.1 -8.8 -5.5 -14.7 -2.8 -20.5 9.5 -7.2 15.2 -7.4 29.2 -0.5 34.1 1.4 1 4.4 1.6 7.5 1.6 4.2 0 6.1 -0.6 10 -3.2z m-161.1 -28.3 c8.3 -4 14.4 -14.2 15.2 -25.5 0.4 -5.5 0.1 -7.2 -1.9 -11 -2.7 -5 -8.6 -9.7 -13.4 -10.6 -10.9 -2.1 -24.1 29.8 -17.6 42.6 0.9 1.9 2.8 4 4.2 4.7 3.4 1.7 9.5 1.6 13.5 -0.2z m116.2 -13.6 c5.9 -2.9 10.6 -8.7 13.2 -16.4 4.4 -13.5 1.2 -23.3 -9.1 -28.6 -5.5 -2.8 -8.2 -2.4 -12.4 1.8 -9.8 9.8 -14.8 34 -8.3 40.9 4.5 4.9 9.8 5.6 16.6 2.3z m-55.1 -12.1 c11.5 -5.4 18.1 -24.6 12.4 -36.4 -2.2 -4.5 -8.1 -9.1 -13 -10.1 -8.7 -1.7 -18.9 16.6 -19 33.9 0 7.4 1.2 10.3 5.2 12.8 4.3 2.6 8.7 2.5 14.4 -0.2z"/>
  <path d="M238.4 254.4 c7.6 -2.7 12.5 -7.7 15.2 -15.2 0.8 -2.1 1.3 -2.9 1.3 -1.7 0.1 7.6 -11.3 18.8 -18.8 18.4 -0.9 0 0.2 -0.7 2.3 -1.5z"/>
  <path d="M172 247.8 c-3 -1.1 -8.2 -2.9 -11.5 -3.8 -3.3 -1 -5.1 -1.9 -4 -1.9 1.1 0 7.2 1.7 13.5 3.9 6.3 2.1 10.6 3.9 9.5 3.9 -1.1 0 -4.5 -1 -7.5 -2.1z"/>
  <path d="M139 238.7 c-2.5 -0.6 -3.8 -1.2 -3 -1.4 0.8 -0.2 3.5 0.3 6 1.1 5.3 1.6 3.5 1.9 -3 0.3z"/>
  <path d="M114.3 231.9 c-10.5 -3.4 -13.2 -5.9 -17.7 -16.6 -3.2 -7.6 -3.3 -10.3 -0.6 -10.3 1.8 0 2 0.6 1.8 5.3 -0.2 4.1 0.4 6.2 2.5 9.8 4 6.7 5.8 8 16.5 11.6 5.4 1.7 9 3.2 8.2 3.2 -0.8 0 -5.6 -1.3 -10.7 -3z"/>
  <path d="M252 231.6 c0 -2 0.5 -3.6 1.1 -3.6 1.6 0 0 -4 -3.8 -9.2 -3.6 -4.9 -12.2 -11.3 -20.4 -15.1 -4.6 -2 -4.9 -2.4 -4.8 -5.7 l0.2 -3.5 0.6 3.4 c0.5 2.8 1.3 3.6 5.1 5 14.3 5.5 24.5 16.5 25.2 27.2 0.2 3.5 -0.1 4.4 -1.4 4.7 -1.5 0.3 -1.8 -0.4 -1.8 -3.2z"/>
  <path d="M94.5 197.5 c1.5 -6.9 10.6 -13.9 19.9 -15.1 4.2 -0.6 4.6 -0.5 4.6 1.5 0 1.7 -0.6 2.1 -3.4 2.1 -1.9 0 -3.6 -0.5 -3.8 -1.1 -0.3 -0.8 -1.5 -0.6 -3.8 0.6 -6.2 3.1 -10.2 6.7 -12.2 10.9 -1.6 3.4 -1.8 3.6 -1.3 1.1z"/>
  <path d="M222.4 187.3 c-2.7 -14.4 -17.2 -29.4 -32.4 -33.6 -5.5 -1.5 -5.8 -1.7 -2 -1.2 5.9 0.7 15.4 5.3 20.7 9.9 8.2 7.1 16.1 22.2 15.1 28.8 -0.2 1.2 -0.8 -0.5 -1.4 -3.9z"/>
  <path d="M125.5 183.9 c-3.6 -1.5 -4.1 -1.9 -1.9 -1.5 3.7 0.6 10.6 3.4 8.4 3.4 -0.8 0 -3.7 -0.9 -6.5 -1.9z"/>
  <path d="M136.5 183.1 c2.3 -14.5 17 -28.7 31.5 -30.6 l4.5 -0.5 -5.2 1.5 c-14.5 4.1 -23.3 12.3 -29 27 -1.7 4.3 -2.2 5 -1.8 2.6z"/>
  <desc>cursor-land.com</desc><path d="M175.8 151.3 c1.2 -0.2 3 -0.2 4 0 0.9 0.3 -0.1 0.5 -2.3 0.4 -2.2 0 -3 -0.2 -1.7 -0.4z"/>
  <path d="M258.6 183.8 c-1.4 -1.3 -2.8 -3.6 -3.1 -5.3 l-0.6 -3 1.4 3 c1.7 3.6 3.7 5.4 7.4 6.5 l2.8 0.8 -2.7 0.1 c-1.5 0.1 -3.8 -0.9 -5.2 -2.1z"/>
  <path d="M271.6 181.8 c3.6 -2.5 5.7 -4.9 8.1 -9.6 1.8 -3.5 3.3 -5.7 3.3 -5 0 0.8 -1.2 3.8 -2.6 6.7 -2.6 5.2 -9.1 11.1 -12.2 11.1 -0.8 0 0.8 -1.5 3.4 -3.2z"/>
  <path d="M255.5 167.8 c1.4 -10.1 6.2 -20 11.6 -24.1 2.6 -1.9 2.7 -1.9 7.1 0.1 4.9 2.1 8.3 6.1 9.3 10.8 0.5 2.3 0.2 2 -1.7 -1.5 -2.8 -5.5 -10.1 -10.5 -12.9 -9 -2.7 1.4 -6.5 6.8 -9.4 13.2 -2.7 6.1 -3.1 8.7 -1.5 8.7 0.6 0 1 1.6 1 3.5 0 2.9 -0.4 3.5 -2.1 3.5 -1.9 0 -2 -0.4 -1.4 -5.2z"/>
  <path d="M103.4 155.3 c-2.9 -0.6 -5.1 -3.1 -5.9 -6.8 l-0.6 -3 1.4 3 c2.6 5.6 6.9 7.4 12 5 5 -2.3 9.7 -7.3 12.4 -13 1.7 -3.6 2.2 -4.2 1.8 -2 -0.8 3.7 -5.8 11.5 -8.8 13.6 -2.2 1.6 -8.5 4 -9.6 3.8 -0.3 -0.1 -1.6 -0.4 -2.7 -0.6z"/>
  <path d="M98.4 133.1 c1.5 -8.4 9.7 -21.1 13.7 -21.1 4.8 0 13.9 8.8 13.9 13.4 0 1.4 -0.7 0.7 -2.2 -2.3 -2 -4.1 -8.7 -10.1 -11.3 -10.1 -1 0 -5.5 4.3 -8.4 8.2 -0.7 0.9 -2.4 4.8 -3.7 8.5 -1.4 3.7 -2.3 5.3 -2 3.4z"/>
  <path d="M215.9 139.1 c-1.6 -1.6 -2.9 -3.8 -2.8 -4.8 0 -1.6 0.1 -1.6 0.9 0.2 0.9 2.3 4.7 6 7 6.8 1.1 0.4 1.1 0.6 -0.3 0.6 -1 0.1 -3.2 -1.2 -4.8 -2.8z"/>
  <path d="M229.7 138.1 c6.1 -4.4 11.7 -13.6 9.3 -15.1 -0.8 -0.5 -1.1 -3.4 -0.9 -8.3 0.3 -6.8 0.1 -7.9 -2 -10.1 -3.2 -3.4 -7.4 -5 -9.8 -3.7 -2.9 1.5 -7.2 8.2 -9.9 15.3 -1.7 4.3 -2.3 5.2 -1.8 2.8 0.8 -5.4 6.1 -15.6 9.4 -18.4 2.5 -2.1 3.5 -2.3 6.2 -1.5 4.2 1.2 9.5 6.4 10.9 10.7 1.7 5.2 0.4 14.5 -2.8 20.4 -2.8 5.2 -8.7 10.8 -11.2 10.8 -0.8 0 0.4 -1.3 2.6 -2.9z"/>
  <path d="M213.2 126.8 c0.2 -2.2 0.9 -3.4 2.1 -3.6 1.4 -0.3 1.7 0.4 1.7 3.2 0 3 -0.4 3.6 -2.1 3.6 -1.7 0 -2 -0.5 -1.7 -3.2z"/>
  <path d="M160.2 127.7 c-1.3 -1.3 -2.5 -4.3 -2.8 -7 -0.6 -4.3 -0.5 -4.7 1.5 -4.7 1.7 0 2.1 0.6 2.1 3.4 0 1.9 -0.5 3.6 -1.2 3.8 -1.6 0.6 -0.2 2.6 3.6 4.9 2.6 1.6 2.8 1.9 1 1.9 -1.1 0 -3 -1 -4.2 -2.3z"/>
  <path d="M167 128 c0 -1.7 0.7 -2 4.5 -2 4.2 0 4.7 -0.3 8 -4.7 1.9 -2.7 4.2 -6.8 5 -9.3 1.4 -4 1.5 -4.1 1 -1 -0.8 5.6 -4.8 12.2 -9.4 15.7 -4.9 3.8 -9.1 4.4 -9.1 1.3z"/>
  <path d="M158.5 110.3 c1.2 -9.9 9.1 -23.3 13.7 -23.3 6.8 0 13.5 7.2 14.3 15.5 l0.4 5 -0.9 -4.3 c-0.5 -2.3 -1.7 -5.6 -2.7 -7.2 -1.6 -2.9 -8.2 -8 -10.1 -8 -3.9 0 -11.3 11.1 -13.7 20.6 -1.2 4.6 -1.4 5 -1 1.7z"/>
  <path d="M272.7 310.9 c7.8 -16.2 13.9 -31.1 20.5 -50.4 1.7 -4.9 3.3 -8.5 3.5 -7.9 0.2 0.6 -0.8 4.2 -2.3 8 -1.6 4.3 -2.6 8.7 -2.5 11.7 0.1 3.9 -0.2 4.7 -1.7 4.7 -1.3 0 -2.3 1.5 -3.7 5.3 -1 2.8 -4.6 11.4 -8.1 19 -4.3 9.5 -5.8 13.7 -4.8 13.7 2.4 0 1.6 1.9 -1.6 3.5 -1.6 0.8 -3.1 1.5 -3.3 1.5 -0.3 0 1.5 -4.1 4 -9.1z"/>
  <path d="M26.2 256 c-0.9 -2.3 -0.9 -3.6 -0.2 -3.8 0.5 -0.2 1 -1.7 1 -3.3 0 -2.2 0.5 -2.9 2 -2.9 1.8 0 2 -0.5 1.4 -3.8 -0.8 -5.3 2.2 -16.2 4.6 -16.2 1.4 0 1.6 -0.8 1.2 -5 -0.4 -4.5 -0.3 -5 1.6 -5 1.2 0 2.3 -0.9 2.7 -2.1 0.4 -1.1 0.9 -1.9 1.1 -1.6 0.2 0.2 -2.3 9.1 -5.7 19.8 -3.3 10.7 -6.6 21.2 -7.3 23.4 l-1.2 4 -1.2 -3.5z"/>
  <path d="M297.4 249.5 c0.2 -1.1 1.6 -6.4 3.2 -11.7 3 -10.5 5.4 -13.1 5.4 -5.8 0 3.2 -0.4 4 -1.8 4 -1.3 0 -2.5 2 -4.5 7.8 -1.5 4.2 -2.5 6.8 -2.3 5.7z"/>
  <path d="M304.1 226.5 c-0.3 -2.9 3.3 -14.5 4.5 -14.5 2.1 0 1.9 6.8 -0.3 7.2 -0.9 0.2 -2.2 2.1 -2.9 4.3 -0.6 2.2 -1.2 3.6 -1.3 3z"/>
  <path d="M42.1 210.4 c-0.1 -0.6 3.2 -10.9 7.2 -23 5.9 -17.4 7.3 -22.8 6.9 -26.1 -0.2 -2.8 0 -4.3 0.7 -4.3 0.6 0 1.1 -1.3 1.1 -3 0 -2.3 0.4 -3 2 -3 1 0 2.4 -0.8 3 -1.7 1.5 -2.3 1.7 -2.9 -7.7 24.2 -4.4 12.7 -9.2 26.4 -10.6 30.5 -1.4 4.1 -2.6 7 -2.6 6.4z"/>
  <path d="M308 208.7 c0 -0.8 0.5 -3.9 1.1 -7 0.8 -4 1.5 -5.4 2.5 -5 1.5 0.5 1.9 6.9 0.8 11.1 -0.7 2.4 -4.4 3.2 -4.4 0.9z"/>
  <path d="M311.1 193.2 c0 -1 0.6 -5.3 1.4 -9.7 1.9 -11.6 1.8 -41 -0.2 -47.7 -3.6 -12.4 -10.3 -20.7 -18.5 -22.8 -2.3 -0.7 -7.1 -1 -10.5 -0.8 -5.7 0.4 -6.4 0.2 -6.9 -1.7 -2.5 -8.2 -12 -26.5 -16.9 -32.3 -2.5 -3 -9.1 -7.5 -13 -9.1 l-3 -1.1 3 0.5 c1.7 0.3 4.9 0.8 7.3 1.2 3.6 0.5 4.2 0.9 4.2 2.9 0 1.9 0.5 2.4 2.5 2.4 2.1 0 2.5 0.5 2.5 2.8 0 3.2 1.6 5.2 4.2 5.2 1.1 0 1.8 0.7 1.8 2 0 1.1 0.5 2 1 2 0.6 0 1 1.8 1 4 0 3.3 0.3 4 2 4 1.3 0 2 0.7 2 2 0 1.1 0.5 2 1.1 2 0.8 0 1 1.5 0.7 4.3 -0.8 7.1 0 8.1 6.3 7.8 3 -0.1 5.6 -0.7 5.7 -1.2 0.4 -1 3.6 -1.2 8 -0.3 2.1 0.4 3.2 1.3 3.4 2.8 0.2 1.6 1.1 2.2 3.5 2.4 2.8 0.3 3.2 0.7 3.5 3.5 0.2 2.4 0.8 3.3 2.6 3.5 1.4 0.2 2.2 1 2.2 2.3 0 1 0.5 1.9 1 1.9 0.6 0 1 1.4 1 3 0 1.7 0.4 3 0.9 3 1 0 3.1 10.9 3.1 16.3 0 2.6 -0.4 3.7 -1.5 3.7 -1.2 0 -1.5 1.3 -1.5 5.5 0 4.4 0.3 5.5 1.6 5.5 1.5 0 1.6 1 1 7.8 -1.2 15.1 -2.9 23 -4.8 23.5 -1.2 0.4 -1.8 0 -1.7 -1.1z"/>
  <path d="M64 146.1 c0 -0.6 0.6 -2.6 1.3 -4.4 0.7 -1.8 1.1 -5.1 0.9 -7.4 -0.3 -2.7 0 -4.3 0.7 -4.3 0.6 0 1.1 -0.9 1.1 -2 0 -1.1 0.5 -2 1 -2 0.6 0 1 -1.1 1 -2.5 0 -1.7 0.5 -2.5 1.8 -2.5 2.3 0 7.2 -11.1 7.2 -16.2 0 -3.2 0.3 -3.8 2.1 -3.8 2.6 0 5.8 -3.7 5.9 -6.7 0 -1.9 0.6 -2.3 3 -2.3 1.7 0 4.3 -0.6 5.8 -1.4 1.5 -0.7 3.8 -1.6 5.2 -2 1.4 -0.4 0.3 0.5 -2.5 2 -12.5 6.6 -16.1 11.9 -27.5 40.4 -6.5 16 -7 17.2 -7 15.1z"/>
  <path d="M121 89 c0 -0.5 -0.7 -1 -1.5 -1 -0.8 0 -1.5 -0.3 -1.5 -0.6 0 -1.2 3.5 -3.3 5.6 -3.4 2.8 0 4.4 -1.9 4.4 -5.2 0 -2.1 0.5 -2.8 2 -2.8 1.3 0 2 -0.7 2 -2 0 -1.5 0.7 -2 2.6 -2 3.8 0 8.4 -3.6 8.4 -6.6 0 -1.6 0.6 -2.4 1.6 -2.4 0.9 0 2.2 -0.8 2.9 -1.7 1 -1.4 3.2 -1.8 11.1 -2 5.5 -0.2 10 -0.7 10.2 -1.3 0.2 -0.5 1.9 -1 3.7 -1 2.3 0 3.4 0.5 3.7 1.8 0.5 1.6 -0.3 1.8 -8.6 1.7 -13.2 0 -19.3 3.2 -34.5 18.2 -6.2 6.2 -11.5 11.3 -11.7 11.3 -0.2 0 -0.4 -0.4 -0.4 -1z"/>
  <path d="M201.5 69 c-3.3 -1.6 -8.8 -3.6 -12.2 -4.6 -7.3 -2 -8.6 -4.4 -2.3 -4.4 3.3 0 4 0.3 4 2 0 2.1 0.8 2.3 7.3 2 2.1 -0.1 3.7 0.3 3.7 0.9 0 0.6 1.1 1.1 2.4 1.1 1.8 0 2.6 0.6 2.8 2.3 0.2 1.3 0.9 2.1 1.8 1.9 0.8 -0.2 3.1 -0.6 5 -0.8 3.2 -0.4 3.1 -0.3 -1 1.1 -5.4 1.8 -4.2 1.9 -11.5 -1.5z"/>
  <path d="M218 67.2 c0 -1.6 0.9 -2 6.1 -2.6 3.4 -0.3 9.1 -0.6 12.5 -0.6 5.7 0 6.4 0.2 6.4 1.9 0 1.7 -0.7 2 -6.2 1.9 -3.5 0 -9.1 0.3 -12.5 0.7 -5.8 0.6 -6.3 0.6 -6.3 -1.3z"/>
 </g>
 <g fill="#fdcfc9">
  <path d="M212.5 256.4 c-13.2 -1.8 -36.3 -6.9 -42.9 -9.5 -5.5 -2.1 -12 -3.8 -34.6 -9.4 -23.4 -5.8 -29.5 -8 -32.8 -12.3 -3.5 -4.4 -7.1 -12.3 -7.8 -17.2 -0.3 -1.9 -0.8 -3.8 -1 -4.2 -0.9 -1.4 1.8 -9.3 4.1 -12.3 1.2 -1.7 4.7 -4.4 7.6 -6 4.7 -2.5 6.5 -2.9 13.4 -3 7.4 0 10.3 0.7 16.6 4.2 0.4 0.2 0.9 -1.3 1.3 -3.4 1.7 -10.7 11.4 -23.1 21.4 -27.6 18.2 -8.2 39.9 -4.4 53.2 9.2 7.8 8 11.7 16.1 13.2 27.4 0.8 6.6 1.5 9 2.7 9.4 4.8 1.5 14.2 6.9 18.4 10.4 15.1 12.9 12.9 35.2 -4.1 42.5 -3.7 1.6 -22 2.7 -28.7 1.8z"/>
  <path d="M258.4 183.7 c-2.8 -2.5 -2.9 -2.8 -2.8 -11.4 0.2 -12.5 4.7 -23.5 11.5 -28.6 2.6 -1.9 2.7 -1.9 7.1 0.1 2.5 1.1 5.6 3.5 6.9 5.3 2 2.9 2.4 4.5 2.4 11.1 -0.1 6.4 -0.6 8.5 -3.1 13.4 -3.4 6.7 -8.8 11 -15 12 -3.4 0.5 -4.5 0.2 -7 -1.9z"/>
  <path d="M103.4 155.3 c-3.5 -0.7 -5.7 -3.9 -6.1 -9 -1.5 -14.9 8.8 -35.8 16.5 -33.8 3.8 0.9 7.8 4.1 10.3 8.1 1.9 3.1 2.1 4.5 1.6 10.6 -1.3 15.1 -11.6 26.3 -22.3 24.1z"/>
  <path d="M215.9 139.1 c-3.1 -3.2 -3.1 -3.3 -2.6 -10.9 1 -12.4 5.3 -23.4 11.2 -28 3.3 -2.6 7.5 -1.6 12.1 2.9 4.3 4.2 5.3 7.4 4.9 15.4 -0.6 11.8 -8.3 21.8 -17.7 23.1 -4.3 0.6 -4.9 0.4 -7.9 -2.5z"/>
  <path d="M160.2 127.8 c-2.6 -2.9 -3.4 -8.1 -2.2 -15.6 1.4 -8.6 4.8 -16.7 8.9 -21.4 3.4 -3.8 3.9 -4.1 7.4 -3.4 4.9 0.9 10.3 6.3 11.8 11.8 2.2 8.5 -2.5 21.8 -9.7 27.4 -5.4 4.1 -12.9 4.6 -16.2 1.2z"/>
 </g>
 <g fill="#f9efe6">
  <path d="M272.2 311.8 c10.6 -21.8 19.5 -44.8 27.7 -71.3 3.1 -10.3 9 -33.5 9.6 -38.3 0.2 -1.5 1.3 -8.1 2.5 -14.7 2.8 -15.7 3.1 -44.2 0.6 -52 -3.5 -10.4 -6.5 -15.1 -13 -20 -3.7 -2.8 -4.5 -3 -13.3 -3 l-9.3 0 -1.6 -4.9 c-2.5 -7.3 -9.8 -21.4 -14.1 -27.1 -9.8 -12.7 -25.1 -16.2 -45.9 -10.5 -6.6 1.8 -7.9 1.9 -9.8 0.7 -6.5 -4.3 -30.1 -10.7 -39 -10.7 -5 0 -14.4 2.6 -16.7 4.6 -0.8 0.8 -1.9 1.4 -2.4 1.4 -1.2 0 -11.1 8.7 -18.4 16.3 -6.6 6.7 -6.6 6.8 -9.9 5.6 -5.6 -1.9 -14.4 -0.4 -22.4 3.8 -10.2 5.3 -14 10.5 -22.5 30.8 -1.4 3.3 -3.1 7.4 -3.8 9 -0.7 1.7 -2.5 6.2 -3.9 10 -1.4 3.9 -3.1 8.4 -3.7 10 -0.7 1.7 -1.3 3.5 -1.5 4 -0.2 0.6 -5 14.7 -10.8 31.5 -5.7 16.8 -10.6 31.2 -10.8 32 -0.3 0.8 -1.4 4.2 -2.4 7.5 -1 3.3 -2 6.3 -2 6.8 -0.1 0.4 -0.2 0.8 -0.4 1 -0.1 0.1 -0.3 0.9 -0.5 1.7 -0.2 0.8 -1.9 6.4 -3.8 12.3 l-3.4 10.9 -4.1 -11.9 c-3.8 -11.2 -6.6 -21 -11.2 -40.3 -1.1 -4.7 -2.6 -14.1 -3.2 -21 l-1.1 -12.5 3.6 -14.5 c9.1 -36.1 16.2 -61.1 18.7 -66 6.2 -12.2 34.7 -46.4 42.9 -51.5 12.4 -7.9 30.2 -15.6 55.1 -23.9 28.9 -9.7 34.1 -10.7 44.5 -8 5.2 1.3 11.7 1.8 25.5 1.9 19.4 0.3 26.9 1.2 36 4.7 5.9 2.3 17.5 8.3 25.5 13.3 2.8 1.7 11.5 6.7 19.4 11.1 29.1 15.9 39 29.6 56.4 77.9 l6.1 17 0.2 32.5 c0.3 37.9 -0.5 50.6 -4.5 66.2 -2.9 11.5 -10.2 29.8 -14.6 36.9 -1.4 2.1 -2.5 4.3 -2.5 4.8 0 4.5 -46.1 44.1 -51.4 44.1 -0.2 0 1.4 -3.7 3.6 -8.2z"/>
 </g>
</svg>
