<svg width="14" height="10" viewBox="0 0 14 10" fill="none" xmlns="http://www.w3.org/2000/svg">
<path d="M13.6012 1.15716L5.10119 9.65716C5.05185 9.70656 4.99326 9.74574 4.92877 9.77247C4.86428 9.79921 4.79515 9.81297 4.72533 9.81297C4.65552 9.81297 4.58639 9.79921 4.52189 9.77247C4.4574 9.74574 4.39881 9.70656 4.34947 9.65716L0.630723 5.93841C0.531039 5.83873 0.475037 5.70353 0.475037 5.56255C0.475037 5.42158 0.531039 5.28638 0.630723 5.18669C0.730407 5.08701 0.865607 5.03101 1.00658 5.03101C1.14756 5.03101 1.28276 5.08701 1.38244 5.18669L4.72533 8.53025L12.8495 0.405442C12.9492 0.305758 13.0844 0.249756 13.2253 0.249756C13.3663 0.249756 13.5015 0.305758 13.6012 0.405442C13.7009 0.505126 13.7569 0.640327 13.7569 0.781301C13.7569 0.922276 13.7009 1.05748 13.6012 1.15716Z" fill="black"/>
</svg>
