<svg width="31" height="31" viewBox="0 0 31 31" fill="none" xmlns="http://www.w3.org/2000/svg">
<path d="M24.3854 18.0098L19.6157 15.6252C19.428 15.5316 19.2189 15.4893 19.0095 15.5024C18.8002 15.5154 18.598 15.5835 18.4233 15.6997L16.2337 17.1603C15.2286 16.6078 14.4015 15.7807 13.8489 14.7757L15.3096 12.5863C15.4258 12.4117 15.4939 12.2095 15.507 12.0002C15.5201 11.7908 15.4777 11.5817 15.3841 11.394L12.9993 6.62476C12.9004 6.42515 12.7477 6.25723 12.5582 6.14001C12.3688 6.02278 12.1504 5.96096 11.9276 5.96154C10.3464 5.96154 8.82987 6.58963 7.71176 7.70763C6.59364 8.82564 5.96549 10.342 5.96549 11.9231C5.96944 15.4003 7.35263 18.7339 9.81163 21.1927C12.2706 23.6515 15.6046 25.0345 19.0821 25.0385C19.8651 25.0385 20.6404 24.8843 21.3637 24.5847C22.0871 24.2851 22.7444 23.8459 23.298 23.2924C23.8516 22.7388 24.2908 22.0816 24.5904 21.3583C24.89 20.635 25.0442 19.8598 25.0442 19.0769C25.0444 18.8554 24.9829 18.6382 24.8665 18.4498C24.7501 18.2613 24.5835 18.1089 24.3854 18.0098ZM19.0821 22.6538C16.2369 22.6507 13.509 21.5191 11.4971 19.5074C9.48518 17.4957 8.35349 14.7681 8.35034 11.9231C8.35011 11.0961 8.63647 10.2946 9.16068 9.65492C9.6849 9.01527 10.4146 8.57701 11.2256 8.41471L12.9367 11.8426L11.4804 14.0096C11.3716 14.1728 11.3048 14.3604 11.2858 14.5556C11.2668 14.7509 11.2963 14.9478 11.3716 15.1289C12.2248 17.1564 13.8379 18.7693 15.8656 19.6224C16.0473 19.7011 16.2457 19.7333 16.4429 19.7161C16.6402 19.699 16.83 19.6329 16.9954 19.524L19.1731 18.0724L22.6013 19.7834C22.4377 20.5952 21.9975 21.3251 21.3557 21.8486C20.7139 22.3721 19.9104 22.6567 19.0821 22.6538ZM15.5049 3.69132e-07C12.8286 -0.000583577 10.1977 0.69167 7.86838 2.00938C5.53904 3.32709 3.59056 5.22537 2.2126 7.51944C0.834646 9.81351 0.0741561 12.4252 0.00515416 15.1004C-0.0638478 17.7755 0.560989 20.423 1.81885 22.785L0.127097 27.8598C-0.0130352 28.2799 -0.0333717 28.7308 0.0683673 29.1619C0.170106 29.5929 0.3899 29.9872 0.703114 30.3003C1.01633 30.6135 1.41058 30.8333 1.84169 30.935C2.2728 31.0368 2.72372 31.0164 3.14393 30.8763L8.21917 29.1847C10.2981 30.2904 12.6016 30.9079 14.9549 30.9905C17.3082 31.073 19.6493 30.6185 21.8007 29.6612C23.952 28.704 25.857 27.2693 27.371 25.466C28.885 23.6627 29.9682 21.5383 30.5385 19.2539C31.1088 16.9695 31.1511 14.5852 30.6622 12.282C30.1734 9.97883 29.1662 7.81727 27.7171 5.96141C26.268 4.10556 24.4152 2.60418 22.2992 1.57124C20.1831 0.53831 17.8596 0.000966112 15.5049 3.69132e-07ZM15.5049 28.6154C13.199 28.617 10.9336 28.0098 8.93761 26.8552C8.79147 26.7705 8.62899 26.7178 8.46094 26.7006C8.29288 26.6833 8.12309 26.702 7.9628 26.7554L2.38823 28.6154L4.24692 23.0413C4.30049 22.8812 4.31943 22.7115 4.30247 22.5434C4.28551 22.3754 4.23304 22.2129 4.14854 22.0666C2.70269 19.5671 2.12218 16.6604 2.49708 13.7973C2.87198 10.9343 4.18132 8.27494 6.222 6.23188C8.26267 4.18883 10.9206 2.87625 13.7835 2.49777C16.6463 2.11929 19.5541 2.69607 22.0556 4.13863C24.5572 5.58118 26.5128 7.80888 27.6189 10.4761C28.7251 13.1434 28.92 16.1011 28.1735 18.8905C27.427 21.6798 25.7807 24.1449 23.4901 25.9032C21.1995 27.6616 18.3926 28.6149 15.5049 28.6154Z" fill="#E37500"/>
</svg>
