<svg width="33" height="29" viewBox="0 0 33 29" fill="none" xmlns="http://www.w3.org/2000/svg">
<path d="M32.5411 0.317287C32.3585 0.162089 32.1363 0.0588725 31.8985 0.0187569C31.6607 -0.0213588 31.4163 0.00314725 31.1916 0.0896346L1.33567 11.5897C0.912544 11.7516 0.554318 12.0445 0.314923 12.4242C0.0755289 12.8038 -0.0320767 13.2498 0.00830641 13.6948C0.0486895 14.1399 0.234876 14.56 0.538834 14.8919C0.842793 15.2239 1.24807 15.4496 1.69366 15.5352L9.42945 17.0301V25.52C9.42793 25.9824 9.56755 26.4346 9.83022 26.818C10.0929 27.2015 10.4665 27.4984 10.9027 27.6703C11.3381 27.8454 11.817 27.8874 12.2771 27.7909C12.7371 27.6945 13.157 27.464 13.4822 27.1295L17.2124 23.3217L23.1302 28.42C23.5572 28.7927 24.1079 28.999 24.6786 29C24.9287 28.9998 25.1772 28.9612 25.4152 28.8854C25.804 28.764 26.1538 28.5444 26.4296 28.2485C26.7054 27.9527 26.8976 27.5908 26.9871 27.1991L32.9668 1.59475C33.0203 1.36383 33.009 1.12294 32.9339 0.897901C32.8589 0.67286 32.7231 0.47215 32.5411 0.317287ZM23.5339 5.53733L10.3355 14.8406L3.02838 13.4298L23.5339 5.53733ZM11.7866 25.52V18.6353L15.4387 21.7876L11.7866 25.52ZM24.6815 26.68L12.5011 16.1674L30.0322 3.80022L24.6815 26.68Z" fill="#E37500"/>
</svg>
