<svg width="31" height="31" viewBox="0 0 31 31" fill="none" xmlns="http://www.w3.org/2000/svg">
<path d="M15.5 8.34615C14.0851 8.34615 12.702 8.76572 11.5255 9.5518C10.3491 10.3379 9.43217 11.4551 8.89071 12.7623C8.34925 14.0695 8.20758 15.5079 8.48361 16.8956C8.75965 18.2834 9.44098 19.5581 10.4415 20.5585C11.442 21.559 12.7166 22.2404 14.1044 22.5164C15.4921 22.7924 16.9305 22.6508 18.2377 22.1093C19.5449 21.5678 20.6621 20.6509 21.4482 19.4745C22.2343 18.298 22.6538 16.9149 22.6538 15.5C22.6519 13.6033 21.8975 11.7848 20.5564 10.4436C19.2152 9.10247 17.3967 8.34813 15.5 8.34615ZM15.5 20.2692C14.5567 20.2692 13.6347 19.9895 12.8504 19.4655C12.0661 18.9414 11.4548 18.1966 11.0938 17.3251C10.7328 16.4536 10.6384 15.4947 10.8224 14.5696C11.0064 13.6444 11.4607 12.7946 12.1276 12.1276C12.7946 11.4607 13.6444 11.0064 14.5696 10.8224C15.4947 10.6384 16.4536 10.7328 17.3251 11.0938C18.1966 11.4548 18.9414 12.0661 19.4655 12.8504C19.9895 13.6347 20.2692 14.5567 20.2692 15.5C20.2692 16.7649 19.7668 17.978 18.8724 18.8724C17.978 19.7668 16.7649 20.2692 15.5 20.2692ZM22.6538 0H8.34615C6.13334 0.00236707 4.01184 0.882452 2.44715 2.44715C0.882452 4.01184 0.00236707 6.13334 0 8.34615V22.6538C0.00236707 24.8667 0.882452 26.9882 2.44715 28.5529C4.01184 30.1175 6.13334 30.9976 8.34615 31H22.6538C24.8667 30.9976 26.9882 30.1175 28.5529 28.5529C30.1175 26.9882 30.9976 24.8667 31 22.6538V8.34615C30.9976 6.13334 30.1175 4.01184 28.5529 2.44715C26.9882 0.882452 24.8667 0.00236707 22.6538 0ZM28.6154 22.6538C28.6154 24.2349 27.9873 25.7513 26.8693 26.8693C25.7513 27.9873 24.2349 28.6154 22.6538 28.6154H8.34615C6.76506 28.6154 5.24871 27.9873 4.13071 26.8693C3.0127 25.7513 2.38462 24.2349 2.38462 22.6538V8.34615C2.38462 6.76506 3.0127 5.24871 4.13071 4.13071C5.24871 3.0127 6.76506 2.38462 8.34615 2.38462H22.6538C24.2349 2.38462 25.7513 3.0127 26.8693 4.13071C27.9873 5.24871 28.6154 6.76506 28.6154 8.34615V22.6538ZM25.0385 7.75C25.0385 8.10372 24.9336 8.4495 24.7371 8.74362C24.5405 9.03773 24.2612 9.26696 23.9344 9.40232C23.6076 9.53769 23.248 9.5731 22.9011 9.5041C22.5542 9.43509 22.2355 9.26475 21.9854 9.01463C21.7352 8.76451 21.5649 8.44584 21.4959 8.09891C21.4269 7.75198 21.4623 7.39238 21.5977 7.06559C21.733 6.73879 21.9623 6.45947 22.2564 6.26295C22.5505 6.06643 22.8963 5.96154 23.25 5.96154C23.7243 5.96154 24.1792 6.14996 24.5146 6.48537C24.85 6.82077 25.0385 7.27567 25.0385 7.75Z" fill="#E37500"/>
</svg>
